# xmcd CD database file
#
# Track frame offsets:
#	150
#	12917
#	17855
#	25877
#	32417
#
# Disc length: 632 seconds
#
# Revision: 0
# Processed by: cddbd v1.5.2PL0 Copyright (c) Steve Scherf et al.
# Submitted via: jetAudio 7
#
DISCID=2e027605
DTITLE=Bobby August - Bobby August's First Blues
DYEAR=1900
DGENRE=Blues
TTITLE0=Dark Night
TTITLE1=Lamer's Stomp
TTITLE2=Sideways Sid
TTITLE3=Walking The Dog
TTITLE4=Dark Night (Reso Rocket)
EXTD=
EXTT0=
EXTT1=
EXTT2=
EXTT3=
EXTT4=
PLAYORDER=
